<svg class="icon" viewBox="0 0 1024 1024" xmlns="http://www.w3.org/2000/svg" width="200" height="200"><defs><style/></defs><path d="M512 997.452a485.452 485.452 0 1 1 0-970.904 485.452 485.452 0 0 1 0 970.904zm0-64.727a420.725 420.725 0 1 0 0-841.45 420.725 420.725 0 0 0 0 841.45z"/><path d="M728.188 292.705c-51.07-51.005-128.418-56.571-172.562-12.427L438.47 397.433c-22.978 22.978-32.17 54.954-28.803 87.511a30.098 30.098 0 0 0-49.257-9.45l-78.19 78.125c-44.144 44.08-38.578 121.493 12.427 172.498s128.418 56.571 172.562 12.427l117.156-117.156c22.913-22.978 32.104-54.953 28.803-87.51a30.098 30.098 0 0 0 49.193 9.45l78.125-78.06c44.144-44.145 38.577-121.558-12.428-172.563zm-30.616 129.583l-78.06 78.061a30.033 30.033 0 0 0-8.61 19.742 143.046 143.046 0 0 0-38.965-71.2 30.422 30.422 0 0 0-42.979 42.979c26.862 26.797 32.558 66.474 12.428 86.54L424.23 695.566c-20.065 20.065-59.678 14.369-86.54-12.428-26.797-26.862-32.492-66.475-12.427-86.605l78.125-78.06a29.969 29.969 0 0 0 8.544-19.742c5.437 25.438 18.253 50.487 38.966 71.2a30.422 30.422 0 0 0 42.978-42.98c-26.861-26.796-32.492-66.474-12.427-86.539l117.156-117.156c20.065-20.065 59.743-14.37 86.54 12.428 26.861 26.862 32.492 66.474 12.427 86.604z"/></svg>