<?xml version="1.0" standalone="no"?><!DOCTYPE svg PUBLIC "-//W3C//DTD SVG 1.1//EN" "http://www.w3.org/Graphics/SVG/1.1/DTD/svg11.dtd"><svg t="1604634936916" class="icon" viewBox="0 0 1024 1024" version="1.1" xmlns="http://www.w3.org/2000/svg" p-id="954" xmlns:xlink="http://www.w3.org/1999/xlink" width="200" height="200"><defs><style type="text/css"></style></defs><path d="M29.58222222 149.73155555h964.83555556c14.56355555 0 27.30666667-12.74311111 27.30666667-27.30666666s-12.74311111-27.30666667-27.30666667-27.30666667h-964.83555556c-14.56355555 0-27.30666667 12.74311111-27.30666667 27.30666667s12.74311111 27.30666667 27.30666667 27.30666666zM994.41777778 874.26844445h-964.83555556c-14.56355555 0-27.30666667 12.74311111-27.30666667 27.30666666s12.74311111 27.30666667 27.30666667 27.30666667h964.83555556c14.56355555 0 27.30666667-12.74311111 27.30666667-27.30666667s-12.74311111-27.30666667-27.30666667-27.30666666zM111.50222222 371.82577778h61.89511111v291.27111111H111.50222222zM384.56888889 555.69066667c3.64088889-5.46133333 9.10222222-7.28177778 16.384-9.10222222 7.28177778-1.82044445 18.20444445-1.82044445 32.768-1.82044445H475.59111111c30.94755555 0 52.79288889-3.64088889 67.35644444-12.74311111 10.92266667-5.46133333 18.20444445-16.384 23.66577778-29.12711111 5.46133333-12.74311111 9.10222222-27.30666667 9.10222222-45.51111111 0-14.56355555-1.82044445-27.30666667-7.28177777-38.22933334-5.46133333-10.92266667-10.92266667-21.84533333-20.02488889-27.30666666-14.56355555-12.74311111-40.04977778-18.20444445-78.27911111-18.20444445h-151.09688889v52.79288889H457.38666667c16.384 0 27.30666667 1.82044445 34.58844444 7.28177778 9.10222222 5.46133333 14.56355555 16.384 14.56355556 29.12711111 0 12.74311111-5.46133333 21.84533333-16.384 27.30666667-7.28177778 3.64088889-18.20444445 5.46133333-34.58844445 5.46133333h-47.33155555c-20.02488889 0-34.58844445 1.82044445-43.69066667 3.64088889s-18.20444445 7.28177778-25.48622222 14.56355556c-16.384 16.384-25.48622222 41.87022222-23.66577778 74.63822222v76.45866666H566.61333333v-50.97244444H377.28711111V584.81777778c0-14.56355555 1.82044445-25.48622222 7.28177778-29.12711111zM937.984 451.92533333c0-16.384-3.64088889-30.94755555-12.74311111-43.69066666-9.10222222-14.56355555-20.02488889-25.48622222-36.40888889-30.94755556-7.28177778-1.82044445-12.74311111-3.64088889-18.20444445-3.64088889-5.46133333 0-18.20444445-1.82044445-36.40888888-1.82044444h-136.53333334v52.79288889h125.61066667c10.92266667 0 18.20444445 0 21.84533333 1.82044444 3.64088889 0 7.28177778 1.82044445 10.92266667 5.46133334 9.10222222 5.46133333 12.74311111 14.56355555 12.74311111 27.30666666 0 10.92266667-3.64088889 20.02488889-10.92266666 25.48622222-5.46133333 5.46133333-18.20444445 7.28177778-36.4088889 7.28177778h-98.304v50.97244444H821.47555555c14.56355555 0 25.48622222 1.82044445 32.768 5.46133334 9.10222222 5.46133333 14.56355555 16.384 14.56355556 30.94755556 0 12.74311111-3.64088889 21.84533333-10.92266666 27.30666666-5.46133333 5.46133333-18.20444445 7.28177778-34.58844445 7.28177778h-125.61066667v50.97244444h129.25155556c21.84533333 0 38.22933333-1.82044445 49.152-3.64088888 10.92266667-1.82044445 21.84533333-5.46133333 30.94755556-12.74311112 21.84533333-12.74311111 30.94755555-34.58844445 30.94755555-61.89511111 0-29.12711111-12.74311111-52.79288889-38.22933333-70.99733333 25.48622222-16.384 38.22933333-36.40888889 38.22933333-63.71555556z" fill="" p-id="955"></path></svg>
