<svg class="icon" viewBox="0 0 1024 1024" xmlns="http://www.w3.org/2000/svg" width="200" height="200"><defs><style/></defs><path d="M456.766 760.551h441.87a55.234 55.234 0 0 1 55.233 55.234v55.234a55.234 55.234 0 0 1-55.234 55.233H456.766a55.234 55.234 0 0 1-55.233-55.233v-55.234a55.234 55.234 0 0 1 55.233-55.234zm0-331.401h441.87a55.234 55.234 0 0 1 55.233 55.233v55.234a55.234 55.234 0 0 1-55.234 55.233H456.766a55.234 55.234 0 0 1-55.233-55.233v-55.234a55.234 55.234 0 0 1 55.233-55.233zM125.365 97.748H512a55.234 55.234 0 0 1 55.234 55.233v55.234A55.234 55.234 0 0 1 512 263.449H125.365a55.234 55.234 0 0 1-55.234-55.234v-55.234a55.234 55.234 0 0 1 55.234-55.233zm580.67 0h219.5a27.617 27.617 0 0 1 23.418 42.309l-109.749 174.98a27.617 27.617 0 0 1-46.838 0l-109.694-174.98a27.617 27.617 0 0 1 23.419-42.31zM235.833 484.383h110.467v55.234H235.832v276.168h-55.234V263.449h55.234v220.934zm-55.234 331.402H346.3v55.234H180.6v-55.234z"/></svg>