<svg class="icon" viewBox="0 0 1025 1024" xmlns="http://www.w3.org/2000/svg" width="200.195" height="200"><defs><style/></defs><path d="M88.288 960.288h223.904V1024h22.784v-63.712h167.136V1024h22.752v-63.712h167.104V1024h22.752v-63.712h223.936l22.752-22.72v-223.68h63.872V691.2h-63.872V524.16h63.872v-22.752h-63.872V334.496h63.872v-22.72h-63.872V88.128l-22.56-22.752h-224V0h-22.72v65.376h-162.72c-1.568-.064-2.976-.192-4.448-.192V0h-22.752v64.992c-2.016 0-4.032.192-6.144.32H335.168V0H312.32v65.376H88.288l-22.88 22.752v223.648H0v22.688h65.408v160.832c-.064 1.984-.32 4.064-.32 6.08H0v22.752h65.184c0 1.536.256 3.008.256 4.384v162.56H0v22.688h65.408v223.648l22.88 22.88zm626.528-872.16h206.048l-100.032 100a446.048 446.048 0 0 0-106.016-74.848V88.128zM256.448 524.16h55.744v147.808a254.944 254.944 0 0 1-55.744-147.808zm-35.904-320.032a423.2 423.2 0 0 1 91.616-66.496v157.984l-91.616-91.488zm75.552 107.648H137.824a429.536 429.536 0 0 1 66.592-91.552l91.68 91.552zm472.896 189.6h-54.176V354.272a254.848 254.848 0 0 1 54.176 147.104zM675.872 691.2h-151.04V540.352L675.872 691.2zM540.896 524.16h151.2v150.88l-151.2-150.88zm151.2-22.784h-152.8l152.8-152.544v152.544zm-167.264-17.664V334.464h149.376L524.832 483.712zm0-171.936v-55.712a255.04 255.04 0 0 1 147.872 55.712H524.832zm-189.888 38.816l151.04 150.816h-151.04V350.592zm0 173.568h149.44l-149.44 149.216V524.16zm167.136 14.4V691.2H349.312L502.08 538.56zM351.072 334.496H502.08v150.912L351.072 334.496zm1.44-22.72a255.904 255.904 0 0 1 149.568-55.808v55.808H352.512zm-96.224 189.6a255.136 255.136 0 0 1 55.872-149.344v149.344h-55.872zM502.08 713.888v54.08a255.2 255.2 0 0 1-147.328-54.08H502.08zm22.752 0h145.696a254.688 254.688 0 0 1-145.696 54.016v-54.016zM714.816 524.16h54.08a255.2 255.2 0 0 1-54.08 145.536V524.16zm0 205.824L804.8 819.84a429.792 429.792 0 0 1-89.984 65.696V729.984zm16.16-16.096h155.712a425.12 425.12 0 0 1-65.856 89.792l-89.856-89.792zm-4-22.688a278.72 278.72 0 0 0 64.8-167.008h145.6A423.68 423.68 0 0 1 897.728 691.2H726.976zm64.8-189.824a277.76 277.76 0 0 0-63.424-166.912h170.08a421.248 421.248 0 0 1 38.944 166.912h-145.6zm-62.624-189.6l91.68-91.552c26.016 27.36 48.64 57.984 66.688 91.552H729.152zm-14.336-173.344a426.112 426.112 0 0 1 89.984 65.696l-89.984 89.856V138.432zm-22.72-50.304v14.176a461.44 461.44 0 0 0-36.96-14.176h36.96zm-162.752 0c57.888 2.272 112.896 16.032 162.72 39.328v170.592a278.592 278.592 0 0 0-167.168-64.704V88.128h4.448zm-194.4 0h35.2c-11.936 4-23.712 8.32-35.2 13.344V88.128zm161.024 0h6.112v145.12a277.984 277.984 0 0 0-167.136 63.328V126.624a423.104 423.104 0 0 1 161.024-38.496zm-183.808 0v24.288a451.744 451.744 0 0 0-107.744 75.712l-100-100H312.16zM88.288 104.192l100.096 99.936a448.864 448.864 0 0 0-75.808 107.648H88.288V104.192zm0 230.304h13.344c-5.056 11.488-9.312 23.296-13.344 35.168v-35.168zm0 160.832c2.272-57.28 15.808-111.52 38.56-160.832H296.96a278.048 278.048 0 0 0-63.36 166.912H88.32v-6.08h-.032zm0 28.832h145.376a277.344 277.344 0 0 0 64.8 166.944H127.68a421.76 421.76 0 0 1-39.392-162.56v-4.384zM294.4 713.888l-89.984 89.792a427.2 427.2 0 0 1-65.76-89.792H294.4zM88.288 654.272c4.192 12.48 8.8 24.832 14.144 36.896H88.288v-36.896zm0 59.616h25.12a448.64 448.64 0 0 0 74.976 105.952L88.288 919.744V713.888zm223.872 223.68H102.656l101.696-101.632a449.568 449.568 0 0 0 107.744 75.712v25.92h.064zm0-51.232a433.792 433.792 0 0 1-91.616-66.528l91.616-91.552v158.08zm22.784 51.232v-14.976c12.928 5.6 26.24 10.528 39.776 14.976h-39.776zm0-40.224V727.488a278.336 278.336 0 0 0 167.136 63.296v145.504a424.992 424.992 0 0 1-167.136-38.944zm357.152 40.224H650.56a482.118 482.118 0 0 0 41.536-15.84v15.84zm-167.264-1.44v-145.44a277.6 277.6 0 0 0 167.104-64.672v170.592a424.224 424.224 0 0 1-167.104 39.52zm189.984 1.44v-26.72a449.312 449.312 0 0 0 106.016-74.912L922.56 937.568H714.816zm224-16.064l-101.824-101.6a447.04 447.04 0 0 0 74.976-105.92h26.848v207.52zm0-230.304h-15.808c5.888-13.536 11.104-27.328 15.808-41.504V691.2zm0-316.96a436.096 436.096 0 0 0-15.104-39.744h15.104v39.744zm0-62.464H912.8a453.376 453.376 0 0 0-75.808-107.648l101.824-101.536v209.184z"/><path d="M774.976 1024H250.304C98.24 1024 0 925.92 0 774.016V249.92C0 98.08 98.24 0 250.304 0h524.672c152.096 0 250.272 98.08 250.272 249.92v524.096c0 151.904-98.176 249.984-250.272 249.984zM250.304 22.72c-138.24 0-227.52 89.152-227.52 227.2v524.096c0 138.016 89.28 227.168 227.52 227.168h524.672c138.272 0 227.616-89.152 227.616-227.168V249.92c0-138.016-89.344-227.2-227.616-227.2H250.304z"/><path d="M512.64 713.088c-111.04 0-201.344-90.208-201.344-201.088 0-110.944 90.336-201.056 201.344-201.056s201.408 90.24 201.408 201.12c0 110.912-90.4 201.024-201.408 201.024zm0-379.424A178.624 178.624 0 0 0 334.144 512c0 98.336 80.096 178.208 178.496 178.208 98.464 0 178.528-79.872 178.528-178.208A178.624 178.624 0 0 0 512.64 333.664z"/></svg>