<svg class="icon" viewBox="0 0 1024 1024" xmlns="http://www.w3.org/2000/svg" width="200" height="200"><defs><style/></defs><path d="M1001.358 741.831l-.682-.683c-11.833-11.719-27.762-18.204-44.374-18.204h-15.474V707.47c0-34.93-28.216-63.146-63.146-63.26h-15.815v-15.702c0-16.839-6.713-32.881-18.546-44.714l-98.304-98.304c36.864-130.617 1.024-271.702-96.484-369.21C577.195 44.943 482.418 5.69 381.611 5.69c-100.921 0-195.698 39.253-267.037 110.592C43.236 187.62 3.982 282.396 3.982 383.204S43.236 578.9 114.574 650.126C185.8 721.465 280.69 760.718 381.497 760.718c34.93 0 69.177-4.778 102.286-14.108l256.797 256.796c11.946 11.947 27.989 18.546 44.714 18.546 1.138 0 2.276 0 3.414-.114l162.93-8.76c32.312-1.707 58.026-27.535 59.846-59.848l8.761-162.93c.91-18.09-5.916-35.726-18.887-48.469zm-53.134 208.1l-163.044 8.76-284.558-284.785a314.943 314.943 0 0 1-119.239 23.438c-80.44 0-160.882-30.72-222.208-92.046-122.766-122.766-122.652-321.764 0-444.416 61.44-61.326 141.767-92.046 222.208-92.046s160.768 30.72 222.208 92.046c92.274 92.274 115.143 227.67 68.722 341.333l126.18 126.18v78.734l78.961.227v78.848h78.848l.683.683-8.761 163.044z"/><path d="M288.54 405.163c30.72 0 59.62-11.947 81.352-33.679s33.678-50.63 33.678-81.237c0-30.72-11.947-59.62-33.678-81.237-21.732-21.846-50.632-33.792-81.352-33.792s-59.62 11.946-81.237 33.678c-44.828 44.828-44.828 117.76 0 162.588 21.618 21.732 50.517 33.679 81.237 33.679zm-51.427-166.457c13.767-13.767 31.971-21.39 51.427-21.39s37.66 7.623 51.428 21.276c13.767 13.767 21.276 31.972 21.276 51.428s-7.623 37.66-21.276 51.427c-13.767 13.767-32.085 21.39-51.428 21.39-19.456 0-37.66-7.623-51.427-21.276-28.33-28.33-28.33-74.41 0-102.855z"/><path d="M578.446 550.23c86.471-101.718 81.92-254.977-14.222-351.005-36.864-36.864-83.285-61.44-134.258-71.225-11.378-2.162-22.528 5.234-24.69 16.725-2.161 11.378 5.234 22.528 16.726 24.69 42.666 8.192 81.465 28.786 112.298 59.62 84.651 84.65 84.651 222.435 0 307.086-40.96 41.074-95.573 63.602-153.6 63.602S268.174 577.08 227.214 536.12c-30.834-30.834-51.427-69.632-59.62-112.299-2.161-11.491-13.311-18.887-24.69-16.725-11.49 2.162-19 13.312-16.724 24.69 9.784 50.972 34.474 97.393 71.224 134.257 48.925 49.039 114.12 76.004 183.41 76.004 62.237 0 121.06-21.845 167.822-61.668L839.225 870.97c4.096 4.096 9.557 6.144 14.905 6.144 5.347 0 10.809-2.048 14.905-6.144 8.192-8.192 8.192-21.618 0-29.81L578.446 550.23z"/></svg>